PathFileType	4	(X/Y/Z)	./resultDataOpenSim/trcMotMarkerGrf/sub10/qtm-12-01.trc
DataRate	CameraRate	NumFrames	NumMarkers	Units	OrigDataRate	OrigDataStartFrame	OrigNumFrames
250.000000	250.000000	13	24	m	250.000000	291	465
Frame#	Time	L.Toe.Tip			R.Toe.Tip			L.Ankle.Lat			R.Ankle.Lat			L.Ankle.Med			R.Ankle.Med			L.Heel			R.Heel			L.Knee.Lat			R.Knee.Lat			L.Knee.Med			R.Knee.Med			L.Thigh.Upper			R.Thigh.Upper			L.ASIS			R.ASIS			V.Sacral			L.Acromium			R.Acromium			C7			L.Elbow			R.Elbow			L.Wrist.Lat			R.Wrist.Lat
		X1	Y1	Z1	X2	Y2	Z2	X3	Y3	Z3	X4	Y4	Z4	X5	Y5	Z5	X6	Y6	Z6	X7	Y7	Z7	X8	Y8	Z8	X9	Y9	Z9	X10	Y10	Z10	X11	Y11	Z11	X12	Y12	Z12	X13	Y13	Z13	X14	Y14	Z14	X15	Y15	Z15	X16	Y16	Z16	X17	Y17	Z17	X18	Y18	Z18	X19	Y19	Z19	X20	Y20	Z20	X21	Y21	Z21	X22	Y22	Z22	X23	Y23	Z23	X24	Y24	Z24

291	1.16	-0.011799848	0.017090275	-0.16599917	0.7753086	0.09351466	0.053741059	-0.12700319	0.087017211	-0.19507457	0.63863827	0.06325959	0.09286717	-0.10895619	0.10533836	-0.11279195	0.64957193	0.092264565	0.0088550062	-0.19755876	0.082146658	-0.15277312	0.60319883	0.019918619	0.048266674	0.071049007	0.41970805	-0.22051507	0.51902193	0.44890394	0.089806786	0.083684473	0.39047117	-0.10087026	0.53365914	0.45064211	-0.0382311	0.2059583	0.79244047	-0.26625546	0.33243489	0.80554835	0.11055871	0.29906186	0.88587019	-0.2243614	0.37337902	0.8955991	0.015211192	0.15012405	0.89828302	-0.038856619	0.33048163	1.3684536	-0.21487446	0.2534126	1.3570047	0.092588101	0.21458875	1.3905381	-0.08394525	0.279887	1.0347812	-0.29650987	0.042242306	1.0848222	0.092453473	0.57534337	0.99232389	-0.32589681	0.023753318	0.87845929	0.22665011
292	1.164	-0.01130455	0.017225432	-0.16596617	0.77656486	0.089110174	0.053525016	-0.12491717	0.089573595	-0.19541291	0.63971424	0.060653251	0.092748087	-0.1064111	0.10752391	-0.11327116	0.65083768	0.089213327	0.0087902512	-0.19531124	0.085891682	-0.15309855	0.60332511	0.018260843	0.048422672	0.077054027	0.4200035	-0.22021756	0.5261393	0.44787102	0.089905929	0.089532659	0.39051096	-0.10068102	0.54075859	0.44978098	-0.038288157	0.21284526	0.79230127	-0.26472819	0.34068084	0.80590278	0.11128473	0.30647519	0.88533561	-0.22390242	0.38150528	0.89554324	0.015285293	0.15833265	0.89837846	-0.037471025	0.33675825	1.3685835	-0.21360746	0.26054569	1.3566721	0.094068612	0.22123874	1.3901227	-0.082172636	0.28437145	1.035022	-0.29448093	0.049794544	1.0845901	0.093050658	0.58071619	0.99226645	-0.32418055	0.029777163	0.87809463	0.22675319
293	1.168	-0.010728436	0.017379834	-0.16590917	0.77798776	0.084327456	0.0532502	-0.12270913	0.092182811	-0.19586392	0.64086667	0.058540615	0.092652809	-0.10371062	0.10972707	-0.11381784	0.65229507	0.086478201	0.0087212245	-0.19285283	0.089722189	-0.15342554	0.60349343	0.017329456	0.048516486	0.083221611	0.42027126	-0.21997365	0.53303767	0.44673956	0.089942746	0.095535854	0.39058328	-0.10051208	0.54762798	0.44883078	-0.038379859	0.21994043	0.79211091	-0.26325383	0.34880188	0.80622812	0.11206681	0.31407966	0.88478951	-0.22336393	0.38950059	0.89556778	0.015438054	0.16652049	0.89855573	-0.036170997	0.34305759	1.3687427	-0.21230351	0.26775019	1.3563637	0.095577902	0.22791214	1.3897332	-0.08034073	0.28872623	1.0352941	-0.29251168	0.057470474	1.0843339	0.093530951	0.58601053	0.99213124	-0.32253007	0.035942395	0.87771584	0.2268831
294	1.172	-0.010065994	0.017551781	-0.16582917	0.78005675	0.078944354	0.052964436	-0.12036088	0.094829222	-0.19641271	0.64253497	0.057204366	0.092621585	-0.10084837	0.11195187	-0.11443692	0.65447882	0.084377298	0.008585079	-0.19017917	0.093637604	-0.15375348	0.60400172	0.017390478	0.048542378	0.089539598	0.4205181	-0.2197778	0.53947496	0.44549097	0.089812886	0.10168672	0.39066726	-0.10037775	0.5541757	0.44777286	-0.038520539	0.22724886	0.79186168	-0.26182282	0.3568182	0.80650188	0.11291332	0.32187644	0.88423192	-0.2227527	0.39737597	0.89565976	0.015697353	0.17466815	0.89883002	-0.034932991	0.3493797	1.3689391	-0.21097375	0.2750053	1.3560776	0.097124881	0.23461498	1.3893826	-0.078483112	0.29339721	1.0355538	-0.29084211	0.065257089	1.0840616	0.094009175	0.59123649	0.99191872	-0.32094848	0.042247498	0.87731243	0.2270447
295	1.176	-0.0093482159	0.017722109	-0.16574461	0.78313901	0.073045827	0.052761613	-0.11783488	0.097504307	-0.19703344	0.64513256	0.056655194	0.09261981	-0.09779728	0.11421443	-0.11512561	0.65775176	0.083066498	0.0083010937	-0.18730358	0.097635179	-0.15412173	0.60501575	0.018436059	0.048533261	0.096022153	0.42077647	-0.21962428	0.54538231	0.44417713	0.089519477	0.10798583	0.3907346	-0.10028575	0.56040078	0.4466566	-0.038765991	0.23477776	0.79154582	-0.26042374	0.36475724	0.80670373	0.11383851	0.32985384	0.88367183	-0.2220702	0.40517021	0.89581208	0.016095688	0.18276999	0.89921712	-0.03375488	0.35572736	1.3691881	-0.20963427	0.28229676	1.3558168	0.098705925	0.24135884	1.3891067	-0.076649698	0.29865297	1.0357747	-0.28961089	0.073147582	1.0837757	0.094608248	0.5963964	0.99163172	-0.31943193	0.048689463	0.87688376	0.22724259
296	1.18	-0.0086228069	0.017865375	-0.16568618	0.78715443	0.067136095	0.052676658	-0.11508523	0.10020905	-0.19771412	0.64867283	0.056610127	0.092586856	-0.094525984	0.11651949	-0.11588568	0.6619152	0.082374871	0.0078508382	-0.18423849	0.10170979	-0.15460861	0.6064833	0.020096357	0.048557965	0.10267112	0.42107731	-0.21952053	0.5509535	0.44295396	0.089180801	0.11444322	0.39075969	-0.10023228	0.56635244	0.4455825	-0.039154233	0.24252167	0.79116821	-0.25906573	0.37264147	0.80682196	0.11485514	0.33798735	0.88312651	-0.22130963	0.41290419	0.89601222	0.016651019	0.19084646	0.89972885	-0.032664574	0.36210904	1.3695015	-0.20829896	0.28962599	1.3555914	0.10031273	0.24814851	1.388939	-0.07487284	0.3044835	1.0359556	-0.28880163	0.081141772	1.0834721	0.095348389	0.60148551	0.99127192	-0.31797389	0.05526878	0.8764347	0.22748335
297	1.184	-0.0079110981	0.017970726	-0.16567269	0.79151473	0.061809776	0.052573767	-0.11207127	0.10294657	-0.19844629	0.65266852	0.056707234	0.092524265	-0.091019122	0.11885054	-0.11673137	0.66627049	0.081929325	0.0073341726	-0.18095512	0.10585929	-0.15527509	0.6082092	0.02188319	0.048690797	0.10948149	0.42142797	-0.2194721	0.55649898	0.44204258	0.088910694	0.12107087	0.39073363	-0.10020447	0.57201717	0.44464657	-0.039600489	0.25046103	0.79074615	-0.25777391	0.38047102	0.80687894	0.11596302	0.3462489	0.882613	-0.22045568	0.42058498	0.89624452	0.017372978	0.1989187	0.90036154	-0.031726094	0.36854069	1.3698796	-0.20697162	0.29699922	1.3554155	0.10194622	0.25497556	1.3888732	-0.073127175	0.31076745	1.0361078	-0.288337	0.089240521	1.0831502	0.096203086	0.60649865	0.99083829	-0.31657139	0.061985112	0.87596533	0.22776524
298	1.188	-0.0071904368	0.018047779	-0.16569588	0.7954631	0.057280068	0.052231528	-0.10878055	0.10572232	-0.19921964	0.65649223	0.056720627	0.09249496	-0.087273981	0.12118626	-0.1176738	0.67014483	0.081441007	0.006918145	-0.17736838	0.11009031	-0.15609263	0.60999161	0.02348717	0.048981977	0.11646335	0.42180436	-0.21945382	0.56225508	0.44164093	0.088718627	0.12788075	0.3906662	-0.10019452	0.57726519	0.44392003	-0.039888194	0.2585732	0.79029637	-0.25657136	0.38821856	0.80695446	0.11713735	0.35461246	0.88214125	-0.21949383	0.42822372	0.89650074	0.018268719	0.20698128	0.90111538	-0.030992322	0.37503786	1.3703164	-0.20564875	0.30440611	1.3552884	0.10360706	0.26183346	1.3888693	-0.071358384	0.31740123	1.0362431	-0.28815016	0.097442725	1.0828104	0.097148989	0.611432	0.99033319	-0.31522555	0.0688334	0.87547102	0.22807482
299	1.192	-0.0064188029	0.018114327	-0.16573821	0.79852133	0.053351839	0.051562434	-0.10523153	0.10854132	-0.20003466	0.65978203	0.056606598	0.092558127	-0.083280566	0.12351554	-0.11869668	0.67329486	0.080841166	0.0067081925	-0.17340196	0.11440882	-0.15695436	0.61167915	0.024840643	0.049427852	0.12364286	0.42216558	-0.21943141	0.56835321	0.44185364	0.088549243	0.13489266	0.39057172	-0.10020632	0.58192645	0.44346274	-0.039791513	0.26683786	0.78982375	-0.25547259	0.39584836	0.80716551	0.11833961	0.36304963	0.8817121	-0.21842057	0.43582948	0.89678576	0.019333538	0.21499651	0.90202003	-0.030440276	0.38160462	1.37081	-0.20432669	0.3118226	1.3551978	0.10528579	0.26873618	1.3889019	-0.069545789	0.32432139	1.0363706	-0.28819685	0.10574374	1.0824489	0.098162886	0.61628007	0.98976317	-0.31394024	0.075809152	0.87495176	0.22840585
300	1.196	-0.005562343	0.018183174	-0.16579314	0.80070156	0.049855939	0.050697696	-0.10144105	0.11139124	-0.20090062	0.66249619	0.056413097	0.092718404	-0.079015709	0.1258301	-0.11976892	0.6758204	0.080196524	0.0066810226	-0.1690635	0.11879926	-0.15776376	0.61316438	0.025986997	0.049962792	0.1310537	0.42248056	-0.21940512	0.57488295	0.44266362	0.088388602	0.14213348	0.39045227	-0.10026061	0.58602346	0.44333016	-0.039269393	0.27523293	0.78932257	-0.25448749	0.40334377	0.80760567	0.11954623	0.37152981	0.88132221	-0.21723954	0.44340067	0.89711201	0.020545381	0.22290483	0.90310256	-0.029986036	0.38823693	1.3713612	-0.20299881	0.3192499	1.3551479	0.10697277	0.27570443	1.3889847	-0.067691387	0.33148713	1.0364976	-0.2884454	0.11413734	1.082065	0.099225304	0.62103988	0.98912725	-0.31271584	0.082914761	0.87441372	0.22876798
301	1.2	-0.0045885299	0.018257514	-0.16585355	0.80239956	0.046948322	0.049890346	-0.097402206	0.11423652	-0.20182373	0.66472618	0.056185434	0.092907453	-0.074454	0.12811103	-0.12087742	0.67787015	0.07957768	0.0067360073	-0.16440194	0.12322686	-0.15848701	0.61439181	0.02694771	0.050491639	0.1387311	0.4227361	-0.21940278	0.58189278	0.44393077	0.088300281	0.14961682	0.39029164	-0.10040577	0.58993817	0.44356481	-0.038580021	0.28373161	0.78878166	-0.2536156	0.41071432	0.80830109	0.12075813	0.38003214	0.88097213	-0.21595314	0.45092946	0.89748897	0.021872384	0.23064308	0.90432877	-0.02955991	0.39493031	1.3719622	-0.20165154	0.32671684	1.3551563	0.10865935	0.28273992	1.3891597	-0.065777616	0.33886241	1.0366309	-0.28886673	0.12261998	1.0816645	0.10033701	0.62571412	0.9884136	-0.31154148	0.090159236	0.87386079	0.22917351
302	1.204	-0.0034594477	0.018326954	-0.16590296	0.80405834	0.044873804	0.049394481	-0.093088198	0.1170362	-0.20280808	0.66655805	0.05595186	0.093020532	-0.069569285	0.13032865	-0.12202232	0.67951687	0.07901281	0.00678364	-0.15941656	0.12766619	-0.15913228	0.61537952	0.027706682	0.050920399	0.14670397	0.42293017	-0.21945268	0.5893393	0.44543733	0.088367839	0.15732927	0.39006596	-0.10069301	0.5941543	0.44417166	-0.038086449	0.29230197	0.78818378	-0.25283604	0.41798616	0.80922267	0.12198347	0.38855209	0.88066542	-0.2145639	0.45840761	0.89792093	0.023281887	0.23815528	0.90560815	-0.029143091	0.40167669	1.3725955	-0.20027161	0.33423042	1.3552188	0.11032827	0.2898385	1.3894704	-0.063802427	0.34640788	1.0367774	-0.28942965	0.13118842	1.0812549	0.10151612	0.63030348	0.98761358	-0.31040146	0.097552974	0.87329068	0.22962928
303	1.208	-0.0021534338	0.018366736	-0.16593414	0.80581998	0.043540441	0.049374081	-0.0884675	0.11976658	-0.20385644	0.66804216	0.055756264	0.093000531	-0.064332774	0.13245689	-0.12319504	0.68082776	0.078512936	0.0067853549	-0.15406157	0.13211383	-0.15971289	0.61619836	0.028274945	0.051178347	0.15498309	0.42306226	-0.21958183	0.59707427	0.44698543	0.088590767	0.16524542	0.38975188	-0.10114288	0.59885329	0.4451036	-0.037933897	0.30090374	0.78750895	-0.25211459	0.42518918	0.81032414	0.12321683	0.39708845	0.88040117	-0.21307831	0.46582578	0.89841196	0.024746147	0.24539909	0.90685487	-0.028753136	0.40846224	1.3732486	-0.19885704	0.3417709	1.3553174	0.11196108	0.29700921	1.3899261	-0.061825464	0.35408029	1.0369441	-0.2901005	0.13983441	1.0808424	0.10277587	0.63480414	0.98672986	-0.30929004	0.10510199	0.87269902	0.23013793
